#!OML:ASF F:\VICON\USERDATA\INSTALL\Justin_Nancy\Justin_Nancy.ASF
:FULLY-SPECIFIED
:DEGREES
1
root 11.7292 16.4121 -25.7512 2.85293 -1.014 3.85768
lowerback 13.3393 0.034549 -3.91723
upperback -0.129208 -0.543046 0.290231
thorax -7.60169 -0.108501 2.6319
lowerneck -15.9001 -6.30644 -11.9091
upperneck 15.1974 -7.45374 8.92582
head 8.11609 -3.41185 4.03187
rclavicle 5.86415e-015 2.78299e-015
rhumerus -52.2233 4.14684 -89.8855
rradius 97.237
rwrist -20.2104
rhand -17.4397 20.456
rfingers 7.12502
rthumb 8.81109 -9.34006
lclavicle 5.86415e-015 2.78299e-015
lhumerus -41.7284 -3.1224 91.0517
lradius 91.3427
lwrist 26.9828
lhand -20.4946 10.498
lfingers 7.12502
lthumb 5.86227 40.3969
rfemur -18.9049 -0.576803 38.5175
rtibia 37.9377
rfoot -16.6944 -9.70873
rtoes 24.0547
lfemur -18.464 -4.36654 -5.02143
ltibia 80.678
lfoot 3.11716 -5.29448
ltoes -1.33256
2
root 11.6866 16.344 -25.3676 2.58186 -0.706267 4.1474
lowerback 13.6091 0.114694 -3.93948
upperback -0.0178109 -0.467392 0.0633782
thorax -7.64161 -0.0762683 2.38986
lowerneck -16.0694 -6.66463 -11.9693
upperneck 15.3134 -7.94529 9.04818
head 8.24789 -3.63183 4.01366
rclavicle -2.27111e-014 -1.55052e-014
rhumerus -50.9506 4.82813 -89.9612
rradius 97.3049
rwrist -19.7551
rhand -16.8864 20.5766
rfingers 7.12502
rthumb 9.34495 -9.19626
lclavicle -2.27111e-014 -1.55052e-014
lhumerus -42.2339 -3.09198 91.0267
lradius 91.2389
lwrist 27.4419
lhand -20.3131 10.6828
lfingers 7.12502
lthumb 6.03757 40.5768
rfemur -17.5061 -0.684678 38.4643
rtibia 38.66
rfoot -18.1935 -10.6109
rtoes 22.172
lfemur -20.788 -4.65463 -5.02536
ltibia 81.2471
lfoot 1.934 -4.86295
ltoes -4.36324
3
root 11.6483 16.2845 -24.9655 2.53377 -0.414821 4.50429
lowerback 13.5174 0.197179 -3.82236
upperback -0.00529945 -0.357928 -0.232456
thorax -7.58635 -0.0348879 1.98569
lowerneck -16.051 -6.98634 -12.0134
upperneck 15.3292 -8.38794 9.07622
head 8.30353 -3.84104 3.96878
rclavicle 5.71506e-015 -8.74653e-015
rhumerus -49.8769 5.43811 -90.0071
rradius 97.6985
rwrist -19.0147
rhand -16.307 20.6047
rfingers 7.12502
rthumb 9.90394 -9.14238
lclavicle 5.71506e-015 -8.74653e-015
lhumerus -43.2776 -3.28952 91.103
lradius 91.6151
lwrist 27.9732
lhand -20.0996 10.8737
lfingers 7.12502
lthumb 6.24371 40.7616
rfemur -16.0467 -0.843355 38.2571
rtibia 38.9692
rfoot -19.6362 -11.1652
rtoes 21.1879
lfemur -23.2235 -4.83296 -5.21781
ltibia 81.5074
lfoot 1.05512 -4.52328
ltoes -8.38876
4
root 11.5993 16.2334 -24.559 2.73961 0.0274409 4.95224
lowerback 12.9926 0.234686 -3.90554
upperback -0.0022858 -0.312515 -0.448828
thorax -7.29061 -0.0198015 1.79069
lowerneck -16.0273 -7.33223 -12.2345
upperneck 15.3559 -8.82672 9.12726
head 8.37149 -4.05651 3.95991
rclavicle 8.79622e-015 -5.56597e-015
rhumerus -48.9468 6.10705 -89.9197
rradius 98.3989
rwrist -17.8971
rhand -16.0266 20.7762
rfingers 7.12502
rthumb 10.1745 -8.95774
lclavicle 8.79622e-015 -5.56597e-015
lhumerus -44.1846 -3.56384 91.2938
lradius 92.0454
lwrist 28.5554
lhand -19.5771 10.8781
lfingers 7.12502
lthumb 6.74806 40.7506
rfemur -14.7881 -0.948044 37.9737
rtibia 39.2276
rfoot -20.7659 -11.7126
rtoes 20.3999
lfemur -25.8882 -5.23582 -5.53398
ltibia 81.6277
lfoot 0.541069 -3.80943
ltoes -8.02644
5
root 11.5494 16.1872 -24.1596 2.98676 0.411178 5.23437
lowerback 12.5136 0.282111 -3.78135
upperback -0.029744 -0.223427 -0.64956
thorax -7.05589 0.0114173 1.48929
lowerneck -16.0157 -7.73406 -12.4987
upperneck 15.4456 -9.34673 9.2316
head 8.47851 -4.30715 3.96312
rclavicle 1.23246e-014 -1.55052e-014
rhumerus -48.1549 6.71336 -89.9069
rradius 99.3529
rwrist -16.7515
rhand -15.8117 21.2989
rfingers 7.12502
rthumb 10.3818 -8.42485
lclavicle 1.23246e-014 -1.55052e-014
lhumerus -44.7361 -4.10237 91.4554
lradius 92.2495
lwrist 29.2193
lhand -19.0885 11.1725
lfingers 7.12502
lthumb 7.2197 41.0293
rfemur -13.3971 -0.796447 37.9022
rtibia 39.0684
rfoot -21.3956 -12.1904
rtoes 19.5056
lfemur -28.5147 -5.53182 -5.71019
ltibia 81.4221
lfoot -3.52255 -1.85942
ltoes -19.0909
